<svg xmlns="http://www.w3.org/2000/svg" xmlns:xlink="http://www.w3.org/1999/xlink" viewBox="0,0,256,256" width="64px" height="64px"><defs><linearGradient x1="30" y1="2" x2="30" y2="62.513" gradientUnits="userSpaceOnUse" id="color-1"><stop offset="0" stop-color="#e6e6e6"></stop><stop offset="1" stop-color="#808080"></stop></linearGradient><linearGradient x1="34" y1="2" x2="34" y2="62.513" gradientUnits="userSpaceOnUse" id="color-2"><stop offset="0" stop-color="#e6e6e6"></stop><stop offset="1" stop-color="#808080"></stop></linearGradient><linearGradient x1="48" y1="39.75" x2="48" y2="50.378" gradientUnits="userSpaceOnUse" id="color-3"><stop offset="0" stop-color="#ffffff"></stop><stop offset="1" stop-color="#b8b8b8"></stop></linearGradient></defs><g fill="none" fill-rule="nonzero" stroke="none" stroke-width="1" stroke-linecap="butt" stroke-linejoin="miter" stroke-miterlimit="10" stroke-dasharray="" stroke-dashoffset="0" font-family="none" font-weight="none" font-size="none" text-anchor="none" style="mix-blend-mode: normal"><g transform="scale(4,4)"><path d="M30,32c-3.309,0 -6,2.691 -6,6c0,2.215 1.21,4.149 3,5.188v1.812c0,1.654 1.346,3 3,3c1.654,0 3,-1.346 3,-3v-1.812c1.79,-1.039 3,-2.973 3,-5.188c0,-3.309 -2.691,-6 -6,-6zM31,44v1c0,0.551 -0.449,1 -1,1c-0.551,0 -1,-0.449 -1,-1v-1zM30,42c-2.206,0 -4,-1.794 -4,-4c0,-2.206 1.794,-4 4,-4c2.206,0 4,1.794 4,4c0,2.206 -1.794,4 -4,4z" fill="url(#color-1)"></path><path d="M50,35.202v-7.202c0,-2.757 -2.243,-5 -5,-5h-4v-2c0,-1.103 -0.897,-2 -2,-2h-1v-8c0,-4.411 -3.589,-8 -8,-8c-4.411,0 -8,3.589 -8,8v8h-1c-1.103,0 -2,0.897 -2,2v2h-4c-2.757,0 -5,2.243 -5,5v24c0,2.757 2.243,5 5,5h28.051c0.252,2.244 2.139,4 4.449,4c2.481,0 4.5,-2.019 4.5,-4.5v-2.343c3.617,-1.58 6,-5.174 6,-9.157c0,-4.829 -3.441,-8.869 -8,-9.798zM39,23h-4v-2h4zM24,11c0,-3.309 2.691,-6 6,-6c3.309,0 6,2.691 6,6v8h-1c-1.103,0 -2,0.897 -2,2v2h-6v-2c0,-1.103 -0.897,-2 -2,-2h-1zM21,21h4v2h-4zM36,53h-12c-1.103,0 -2,0.897 -2,2h-7c-1.654,0 -3,-1.346 -3,-3v-24c0,-1.654 1.346,-3 3,-3h4h8h6h8h4c1.654,0 3,1.346 3,3v7c-5.514,0 -10,4.486 -10,10c0,3.604 1.9,6.864 5,8.651v1.349h-5c0,-1.103 -0.897,-2 -2,-2zM50.666,52.534l-0.666,0.237v3.729c0,1.378 -1.122,2.5 -2.5,2.5c-1.378,0 -2.5,-1.122 -2.5,-2.5v-4.066l-0.554,-0.276c-2.742,-1.365 -4.446,-4.108 -4.446,-7.158c0,-4.411 3.589,-8 8,-8c4.411,0 8,3.589 8,8c0,3.377 -2.144,6.405 -5.334,7.534z" fill="url(#color-2)"></path><path d="M48,40c-2.76142,0 -5,2.23858 -5,5c0,2.76142 2.23858,5 5,5c2.76142,0 5,-2.23858 5,-5c0,-2.76142 -2.23858,-5 -5,-5z" fill="url(#color-3)"></path></g></g></svg>